<?xml version="1.0" encoding="utf-8"?>
<!-- Generator: Adobe Illustrator 19.0.0, SVG Export Plug-In . SVG Version: 6.00 Build 0)  -->
<svg version="1.1" id="Calque_1" xmlns="http://www.w3.org/2000/svg" xmlns:xlink="http://www.w3.org/1999/xlink" x="0px" y="0px"
	 viewBox="0 0 180 180" style="enable-background:new 0 0 180 180;" xml:space="preserve">
<style type="text/css">
	.st0{stroke:#000000;stroke-width:0.3505;stroke-miterlimit:10;}
	.st1{fill:none;stroke:#F4E3D6;stroke-width:1.1075;stroke-miterlimit:10;}
	.st2{fill:#F0D5D1;}
	.st3{fill:none;stroke:#1D1D1B;stroke-width:0.5989;stroke-miterlimit:10;}
	.st4{fill:#1D1D1B;}
	.st5{fill:#BD1622;stroke:#1D1D1B;stroke-width:0.3506;stroke-miterlimit:10;}
	.st6{fill:#FFFFFF;stroke:#1D1D1B;stroke-width:0.263;stroke-miterlimit:10;}
	.st7{fill:#E12B42;stroke:#1D1D1B;stroke-width:0.263;stroke-miterlimit:10;}
	.st8{fill:#1D1D1B;stroke:#1D1D1B;stroke-width:0.263;stroke-miterlimit:10;}
	.st9{fill:#BD1622;stroke:#1D1D1B;stroke-width:0.263;stroke-miterlimit:10;}
</style>
<circle id="XMLID_785_" class="st0" cx="89.2" cy="102.3" r="75.7"/>
<circle id="XMLID_784_" class="st1" cx="88.9" cy="102.2" r="69.8"/>
<g id="XMLID_722_">
	<g id="XMLID_764_">
		<path id="XMLID_15_" class="st2" d="M114.7,36.3c-0.3,3-3.4,5.5-2.7,5.1c1-0.5,2.4-2.7,2.4-2.7C114.6,37.9,114.6,37.1,114.7,36.3z
			 M111,48.9l0.4,1.4C111.2,49.5,111.1,49.1,111,48.9z M49.1,61.6l-0.2,0c0,0-5.4-6.6-5.4-9s2.7-9.3,2.7-9.3s0.6-0.1,1.7-0.3
			c0,0-2.8-6.5-1.6-7.7c1.2-1.2,3.4-5,4.8-5c0.5,0,2.7-0.3,5.4-0.8c0,0,15.7-12.4,24-16.2c0,0,0,0,0,0c0.2,0,7.8-1.3,12.4,6.5
			l-0.1-1.3l0.4,3.3l0.3,2.4l2.9,3.8l5.9,0.7c0.5-0.4,1-0.8,1.5-1.2c0,0,0,0,0,0s4.2-0.1,9.2,4.4c1,0.9,1.5,1.8,1.7,2.7
			c0.1,0.5,0.1,1,0.1,1.6c0.1-0.5,0-1-0.1-1.6c-0.8-5.9-6.7-7.8-8.2-8.2c1.9,0.5,8.7,2.8,8.5,10.3c0,0-2,10.9-1.7,14.4l0,0.5
			c0,1.7,0,3-0.1,4l-1.6-5.4c0.6,2.1,1.5,6.1,1.4,10.1c-0.1,5.8-2.9,9.8-2.8,10.2h0c1,3.6,1.5,8.3-0.3,13.1
			c-2.1,5.6-4.4,9.2-6.1,11.3l0,0l-3.3,2.3c0,0,1.7,2.4,2.7,4.1c0.3,1,0.6,2.3,0.6,3.7c-0.3,1.9-0.9,3.8-0.9,3.8l7,8.4
			c0-0.1,0-0.2,0-0.3l13.8,18.2l-40.3,36.8c0,0-6-17.7-5.7-20.7c0.3-3-8.7-17.1-8.7-17.1s-5.4-15.9-5.7-17.1
			c-0.3-1.2-6.9-10.8-8.7-16.8C53.2,96,49.9,72.8,49.1,61.6z M111,48.8C111,48.8,111,48.8,111,48.8L111,48.8z"/>
		<path id="XMLID_14_" class="st2" d="M114.6,34.7c0.1,0.5,0.2,1.1,0.1,1.6C114.7,35.8,114.6,35.2,114.6,34.7z"/>
		<path id="XMLID_13_" class="st2" d="M114.7,36.3c0,0.8-0.1,1.6-0.3,2.4c0,0-1.4,2.2-2.4,2.7C111.3,41.8,114.3,39.3,114.7,36.3z"/>
		<path id="XMLID_12_" class="st2" d="M113,55.8l0.9,3c0,0-0.5,5.8-1.3,10.1l-0.1,0c0.6-3.1,0.6-6.7,0.6-7.6
			C113.3,57.7,113,60.5,113,55.8z"/>
		<path id="XMLID_11_" class="st2" d="M112.6,68.8L112.6,68.8c-0.4,2.7-1,4.8-1.6,4.8c0,0-0.8-2.5-0.9-2.9
			c-0.1-0.4,2.7-4.4,2.8-10.2c0.1-3.9-0.8-7.9-1.4-10.1l1.6,5.4c0,4.8,0.3,1.9,0.1,5.4C113.1,62.1,113.1,65.7,112.6,68.8z"/>
		<path id="XMLID_10_" class="st2" d="M114.6,34.7c-0.2-0.9-0.7-1.8-1.7-2.7c-5-4.5-9.2-4.4-9.2-4.4l2.3-1.3c0,0,0,0,0.1,0
			c0,0,0.1,0,0.2,0c0,0,0.1,0,0.1,0C107.9,26.9,113.8,28.8,114.6,34.7z"/>
		<path id="XMLID_9_" class="st2" d="M111.4,50.2l-0.4-1.4C111.1,49.1,111.2,49.5,111.4,50.2z"/>
		<path id="XMLID_8_" class="st2" d="M111,48.8L111,48.8C111,48.8,111,48.8,111,48.8z"/>
		<path id="XMLID_7_" class="st2" d="M103.7,105.2c0.2-1.1,0.2-2.2,0-2.7c-0.1-0.3-0.3-0.6-0.5-1c-0.7-2-1.7-3.3-2.7-4.1l3.3-2.3
			l0,0c0,0,0,0,0,0c0.2,0.5,6.2,16.1,6.1,22c0,0.1,0,0.2,0,0.4l-7-8.4C102.8,109.1,103.4,107.1,103.7,105.2z"/>
		<path id="XMLID_6_" class="st2" d="M103.1,27.7L103.1,27.7c-1.5,0-5.5,0.1-6,0L103.1,27.7z"/>
		<path id="XMLID_5_" class="st2" d="M103.1,27.7l-0.9,1.2l-5.9-0.7l-2.9-3.8v-2c0.9,1.4,3.1,5.1,3.6,5.3
			C97.6,27.8,101.6,27.7,103.1,27.7z"/>
		<path id="XMLID_4_" class="st2" d="M100.4,97.4c1,0.8,2.1,2.1,2.7,4.1C102.1,99.9,100.4,97.4,100.4,97.4z"/>
		<path id="XMLID_3_" class="st2" d="M93.4,22.4l3.6,5.3C96.5,27.5,94.3,23.8,93.4,22.4z"/>
		<path id="XMLID_2_" class="st2" d="M92.8,18.6l0.1,1.3c-4.6-7.7-12.2-6.5-12.4-6.5l4.1-1c0.2,0,0.3,0.1,0.4,0.1
			c0.1,0,0.2,0.1,0.3,0.1C89.1,13.9,92.6,18.3,92.8,18.6C92.8,18.6,92.8,18.6,92.8,18.6z"/>
		<path id="XMLID_1_" class="st2" d="M85.1,12.5c-0.1,0-0.3-0.1-0.4-0.1C84.8,12.5,84.9,12.5,85.1,12.5z"/>
	</g>
	<g id="XMLID_744_">
		<path id="XMLID_38_" class="st3" d="M56.4,50.3c0,0-5.7,4.8-7.2,5.4c-0.4,0.1-0.3,2.5-0.1,6c0.8,11.1,4.1,34.4,5.5,38.9
			c1.8,6,8.4,15.6,8.7,16.8c0.3,1.2,5.7,17.1,5.7,17.1s9,14.1,8.7,17.1c-0.3,3,5.7,20.7,5.7,20.7l40.3-36.8l-13.8-18.2l0,0"/>
		<path id="XMLID_37_" class="st3" d="M48.9,61.6c0,0-5.4-6.6-5.4-9s2.7-9.3,2.7-9.3s0.6-0.1,1.7-0.3c4.3-0.7,15.6-2.4,16.6-2.4"/>
		<path id="XMLID_36_" class="st3" d="M47.9,43.1c0,0-2.8-6.5-1.6-7.7c1.2-1.2,3.4-5,4.8-5c0.5,0,2.7-0.3,5.4-0.8
			c5.1-0.8,12.1-2.2,13.8-2.8"/>
		<polyline id="XMLID_35_" class="st3" points="92.8,18.6 93.2,21.9 93.4,24.4 		"/>
		<path id="XMLID_34_" class="st3" d="M85.4,12.6c4.4,1.4,7.2,5.7,7.4,5.9"/>
		<path id="XMLID_33_" class="st3" d="M80.5,13.4c1.8-0.8,3.3-1.2,4.1-1"/>
		<path id="XMLID_32_" class="st3" d="M106.3,26.5c1.9,0.5,8.7,2.8,8.5,10.3"/>
		<path id="XMLID_31_" class="st3" d="M106.1,26.4c0,0,0.1,0,0.2,0"/>
		<path id="XMLID_30_" class="st3" d="M100.4,30.4c0,0,0.8-0.7,1.8-1.5c0.5-0.4,1-0.8,1.5-1.2c1-0.8,2-1.4,2.3-1.3"/>
		<path id="XMLID_29_" class="st3" d="M103.1,27.7c0.3,0,0.5,0,0.6,0c0,0,0,0,0,0"/>
		<path id="XMLID_28_" class="st3" d="M93.1,21.8c0,0,0,0,0.1,0.1"/>
		<path id="XMLID_27_" class="st3" d="M114.8,36.8c0,0-2,10.9-1.7,14.4"/>
		<path id="XMLID_26_" class="st3" d="M113.1,51.7c0,1.7,0,3-0.1,4c0,4.8,0.3,1.9,0.1,5.4c0,0.9-0.1,4.6-0.6,7.6"/>
		<path id="XMLID_25_" class="st3" d="M107.6,64.6c0,0,1.5,2.4,2.4,6c1,3.6,1.5,8.3-0.3,13.1c-2.1,5.6-4.4,9.2-6.1,11.3"/>
		<path id="XMLID_24_" class="st3" d="M103.1,101.5c0.3,1,0.6,2.3,0.6,3.7c0,0.1,0,0.2,0,0.3"/>
		<path id="XMLID_23_" class="st3" d="M94.4,99.5c0,0,4.5-3.3,6-2.1"/>
		<path id="XMLID_22_" class="st3" d="M103.7,95.1c0.2,0.4,6.6,14.8,6.1,22c0,0.1,0,0.2,0,0.3"/>
		<path id="XMLID_21_" class="st3" d="M93.2,21.9c0.1,0.1,0.2,0.3,0.3,0.5v0"/>
		<path id="XMLID_20_" class="st3" d="M56.4,29.6c0,0,15.7-12.4,24-16.2c0,0,0,0,0,0"/>
	</g>
</g>
<path id="XMLID_721_" class="st2" d="M83.3,172.1l0-8l39.2-30.3l0.7,1.5l13.9,13.4l2.3,1.7c-1.8,2.7-9.1,8-14.2,11.4
	c-10.4,7-27.6,10.9-37.1,10.7C85.1,172.5,83.3,172.1,83.3,172.1z"/>
<path id="XMLID_720_" class="st3" d="M83.3,172.1c0,0-6-17.7-5.7-20.7s-8.7-17.1-8.7-17.1s-5.4-15.9-5.7-17.1s-6.9-10.8-8.7-16.8
	c-1.8-6-6.9-44.3-5.4-44.9c1.5-0.6,7.2-5.4,7.2-5.4s13.8,6,17.7,6S86,64,86,64s3.3,11.1-5.7,17.1c0,0-6,2.1-6.6-2.4
	c-0.3-2.3-0.6-4.1-0.8-5.3c-0.2-1-1.2-1.5-2.1-1.1h0c-1.6,0.7-3.5,0.2-4.5-1.2l-3.6-4.8"/>
<path id="XMLID_719_" class="st3" d="M48.9,61.6c0,0-5.4-6.6-5.4-9c0-2.4,2.7-9.3,2.7-9.3s17.1-2.7,18.3-2.7s21.2,0.6,22.1,2.1
	s1.5,5.4,0,7.5c-1.5,2.1-5.4,4.8-5.4,4.8"/>
<polyline id="XMLID_718_" class="st3" points="87.1,43.9 90,58 86.6,67.6 "/>
<path id="XMLID_717_" class="st3" d="M47.9,43.1c0,0-2.8-6.5-1.6-7.7c1.2-1.2,3.4-5,4.8-5c1.4,0,16.6-2.6,19.2-3.6
	c2.6-1,14.4-3.4,16.4-2c2,1.4,2.2,9.1,2.2,9.1"/>
<path id="XMLID_716_" class="st3" d="M56.4,29.6c0,0,23.2-18.4,28.2-17.2c5,1.2,8.2,6.2,8.2,6.2l1,10.6"/>
<path id="XMLID_715_" class="st3" d="M100.4,30.4c0,0,4.6-4.2,5.6-4s9.1,2.2,8.9,10.4c0,0,0,4.9-6.1,5.8"/>
<path id="XMLID_714_" class="st3" d="M90,30.6"/>
<path id="XMLID_713_" class="st3" d="M109.8,42.2c0,0-4.4,8.4-15,3.6S90,30.6,90,30.6s4.4-1.6,7.8,2.7c0,0,5.4-0.5,5.8,1"/>
<path id="XMLID_712_" class="st3" d="M102.9,34.9c0,0,2.5-0.3,0-2.4c-2.5-2.1-5.3-3.3-7.8-3.3c-2.5,0-5.1,1.1-5.1,1.1"/>
<path id="XMLID_711_" class="st3" d="M93.1,21.8c0,0,3.3,5.6,4,5.8c0.6,0.2,6.6,0,6.6,0"/>
<path id="XMLID_710_" class="st3" d="M114.8,36.8c0,0-2,10.8-1.7,14.4"/>
<path id="XMLID_709_" class="st3" d="M113.1,51.2c-0.2,10,0.2,4.3,0,8.6c-0.1,1.4,0,10.9-2.1,13.1"/>
<path id="XMLID_708_" class="st3" d="M107.6,64.6c0,0,5.7,9.5,2.1,19.2c-3.6,9.7-8.1,13.6-8.1,13.6"/>
<path id="XMLID_707_" class="st3" d="M86.6,84.5l4.7,8.5c0,0,2.8,8.8,0.9,12.7s-6.4,7.5-6.4,7.5l-0.9,6.1l5.6,25"/>
<path id="XMLID_706_" class="st3" d="M94.4,99.5c0,0,4.5-3.3,6-2.1s3.3,3.7,3.3,8.1"/>
<path id="XMLID_705_" class="st3" d="M94.4,94l1.3-4c0,0,2.1,3.6,3.3,3.3s-5.2-9.1-4.6-13.9"/>
<path id="XMLID_704_" class="st3" d="M103.7,95.1c0,0,6.8,15.2,6.1,22.3"/>
<line id="XMLID_703_" class="st3" x1="103.7" y1="109.1" x2="123.6" y2="135.3"/>
<path id="XMLID_702_" class="st3" d="M89.5,41.1l1.8,12.6c0,0-0.2,1.6-1.2,2"/>
<path id="XMLID_701_" class="st4" d="M58.9,86.6c0,0,7.2,14,18.4,13.8c0,0-11.2-0.8-13.2-4.4C62,92.5,58.9,86.6,58.9,86.6z"/>
<path id="XMLID_700_" class="st4" d="M111,48.8l3,9.9c0,0-1.3,14.9-3,14.9c0,0-0.8-2.5-0.9-2.9c-0.1-0.4,2.7-4.4,2.8-10.2
	S111,48.8,111,48.8z"/>
<path id="XMLID_699_" class="st4" d="M49,60c0,0,6.7,32.3,6.7,33.6c0,1.3,4.2,15.1,7,19.1c2.8,4,6.3,21.8,6.3,21.8l-5.7-17.1
	c0,0-8.3-14.4-9-17.9S47.9,61.3,49,60z"/>
<path id="XMLID_698_" class="st4" d="M58.9,60.5c0,0-1.5-1.5-2.4-1.4c-1,0-4.2,10.3-3,13.8C54.7,76.3,51.3,64.1,58.9,60.5z"/>
<path id="XMLID_697_" class="st4" d="M103.6,27.7l2.3-1.3c0,0,10.5,2.1,8.4,12.4c0,0-1.4,2.2-2.4,2.7s5.8-5,0.9-9.4
	C107.9,27.6,103.6,27.7,103.6,27.7z"/>
<polygon id="XMLID_696_" class="st4" points="93.4,22.4 93.4,24.4 96.3,28.2 102.1,28.9 103.1,27.7 97,27.7 "/>
<path id="XMLID_695_" class="st4" d="M84.6,12.4c4.1,0.9,8.2,6.2,8.2,6.2l0.6,10.6h-0.5v-9.3c-4.7-7.8-12.4-6.5-12.4-6.5L84.6,12.4z
	"/>
<path id="XMLID_694_" class="st4" d="M100.4,97.4l3.3-2.3c0,0,6.5,16.7,6.1,22.3l-7-8.4c0,0,1.6-5.1,0.9-6.6
	C102.9,101.1,100.4,97.4,100.4,97.4z"/>
<path id="XMLID_693_" class="st4" d="M90.4,144.4l-9-26.9c0,0,2.5-5.4,3.4-6.3c0.9-0.9,6.5-7.7,6.5-7.7s1.3-6-4.7-17.9
	c-6-11.8,9.2,9.5,5.9,19.1c-2.9,8.5-6.5,9.8-6.5,9.8L90.4,144.4z"/>
<path id="XMLID_692_" class="st4" d="M67.4,78.6c0.3-6.9-3.7-10.8-2.5-9.3c1.1,1.5,8.3,2.7,8.3,2.7s0.6,6.7,1.2,8.3"/>
<path id="XMLID_691_" class="st4" d="M109.2,44.7l0.3-1.6c-11.1,9.9-19.8-1.6-19.8-1.6l1.6,12.3l-1.7,2L90,58l-3.1,8.6v2.3
	c0,0,3.8-7.7,4.3-9s0-3.4,0-3.4s0.8-1.7,0.8-2.8c0-1-3-8.6-0.8-8.5C93.5,45.4,96.8,52.6,109.2,44.7z"/>
<g id="XMLID_688_">
	<path id="XMLID_46_" class="st4" d="M78.5,81.5c0.6-1.3,1-2.7,1.4-4c0.2-0.7,0.4-1.4,0.5-2c0.2-0.7,0.3-1.4,0.4-2.1l0-0.3l0.3-0.2
		c0.7-0.4,1.5-0.6,2.3-0.8c0.8-0.2,1.6-0.2,2.5-0.1l0,0.1c-1.5,0.6-2.8,1.3-4.3,1.9l0.4-0.4c-0.8,2.8-1.9,5.5-3.4,7.9L78.5,81.5z"/>
</g>
<path id="XMLID_687_" class="st5" d="M99.1,29.8l8.5-15.4c0,0,0.4-1.3,0.1-1.2c-0.3,0.1-1.5,0.8-1.5,0.7c0-0.2-8.5,15.5-8.5,15.5
	S98.6,29.5,99.1,29.8z"/>
<polygon id="XMLID_686_" class="st5" points="65.8,89.8 73.5,75.8 73.3,73.5 64.6,89.2 "/>
<rect id="XMLID_685_" x="64.1" y="89.5" transform="matrix(-0.4848 0.8746 -0.8746 -0.4848 175.1407 77.212)" class="st5" width="1.5" height="1.4"/>
<path id="XMLID_684_" class="st6" d="M103.7,10.7l5.8-7.3c0,0,0.6,0,0.6,0.6c0,0,0.2,0.4,0.7,0.5l0.2,0.3l-3.1,9l-3.2,1l-1.1-3.5
	L103.7,10.7z"/>
<path id="XMLID_683_" class="st5" d="M93.3,29.1l9.6-17.4c0,0,0.8-1.2,1.1-1c0.3,0.2-0.2,1.6,0.1,1.6c0.3,0-9.2,16.6-9.2,16.6
	S94.2,29,93.3,29.1z"/>
<path id="XMLID_682_" class="st7" d="M97.8,29.3l8.5-15.5c0,0,0.1-2.4-0.2-2.4c-0.3,0-2,0.9-2,0.9L94.9,29
	C94.9,29,96.9,29.1,97.8,29.3z"/>
<path id="XMLID_681_" class="st8" d="M109.7,3.3c0,0,1.6-2.4,2.1-2.3c0.4,0.1,0.3,0.7,0.3,0.7L111,4.8l-0.2-0.3c0,0-0.7-0.3-0.7-0.5
	C110.2,3.7,110,3.3,109.7,3.3z"/>
<polygon id="XMLID_680_" class="st5" points="69.9,71.3 61.1,87.2 62.2,87.9 71.2,71.7 "/>
<polygon id="XMLID_679_" class="st7" points="64.6,89.2 73.3,73.5 73.1,72 71.2,71.7 62.2,87.9 "/>
<rect id="XMLID_678_" x="60.5" y="87.5" transform="matrix(0.4848 -0.8746 0.8746 0.4848 -45.5872 99.0406)" class="st5" width="1.5" height="1.4"/>
<rect id="XMLID_677_" x="62.3" y="87.8" transform="matrix(-0.4848 0.8746 -0.8746 -0.4848 171.6425 77.3034)" class="st9" width="1.5" height="2.7"/>
<path id="XMLID_676_" class="st5" d="M60.3,88.6l-5.1,9.2c0,0,1.1,0.8,1.3,0.4c0.2-0.4,5-8.9,5-8.9L60.3,88.6z"/>
<path id="XMLID_675_" class="st7" d="M63.9,90.5l-5,9c0,0-1.4,0-2.4-1.3l5-9L63.9,90.5z"/>
<path id="XMLID_674_" class="st5" d="M63.9,90.5l1.2,0.7l-5.1,9.2c0,0-1.2-0.5-1-0.9C59.1,99.1,63.9,90.5,63.9,90.5z"/>
<path id="XMLID_673_" class="st4" d="M55.2,97.8c0,0-0.5,0.9,1.6,2.1c2,1.2,3,0.8,3.2,0.5c0,0-1.2-0.5-1-0.8
	c0.1-0.3-1.1,0.2-2.4-1.3C56.5,98.3,56.1,98.4,55.2,97.8z"/>
</svg>
